<svg xmlns="http://www.w3.org/2000/svg" viewBox="0 0 512 512" width="512" height="512">
  <defs>
    <linearGradient id="bg" x1="0%" y1="0%" x2="100%" y2="100%">
      <stop offset="0%" stop-color="#0D5233" />
      <stop offset="100%" stop-color="#051F13" />
    </linearGradient>
  </defs>
  <rect width="512" height="512" rx="115" fill="url(#bg)" />
  
  <!-- Axes -->
  <line x1="90" y1="256" x2="414" y2="256" stroke="#ffffff" stroke-width="10" stroke-linecap="round" />
  <polygon points="408,245 428,256 408,267" fill="#ffffff" />
  
  <line x1="256" y1="422" x2="256" y2="98" stroke="#ffffff" stroke-width="10" stroke-linecap="round" />
  <polygon points="245,104 256,84 267,104" fill="#ffffff" />
  
  <!-- Curve Solid -->
  <path d="M 92.80 227.86 L 94.67 224.59 L 96.54 221.72 L 98.42 219.24 L 100.29 217.14 L 102.16 215.39 L 104.03 213.99 L 105.90 212.91 L 107.78 212.14 L 109.65 211.66 L 111.52 211.46 L 113.39 211.52 L 115.26 211.83 L 117.14 212.37 L 119.01 213.14 L 120.88 214.11 L 122.75 215.27 L 124.62 216.61 L 126.50 218.11 L 128.37 219.77 L 130.24 221.57 L 132.11 223.49 L 133.98 225.53 L 135.86 227.68 L 137.73 229.92 L 139.60 232.24 L 141.47 234.63 L 143.34 237.08 L 145.22 239.58 L 147.09 242.12 L 148.96 244.69 L 150.83 247.28 L 152.70 249.88 L 154.58 252.48 L 156.45 255.08 L 158.32 257.66 L 160.19 260.22 L 162.06 262.75 L 163.94 265.24 L 165.81 267.68 L 167.68 270.07 L 169.55 272.41 L 171.42 274.67 L 173.30 276.87 L 175.17 278.98 L 177.04 281.01 L 178.91 282.95 L 180.78 284.80 L 182.66 286.55 L 184.53 288.19 L 186.40 289.73 L 188.27 291.16 L 190.14 292.46 L 192.02 293.65 L 193.89 294.72 L 195.76 295.66 L 197.63 296.48 L 199.50 297.16 L 201.38 297.71 L 203.25 298.13 L 205.12 298.41 L 206.99 298.55 L 208.86 298.56 L 210.74 298.42 L 212.61 298.15 L 214.48 297.74 L 216.35 297.19 L 218.22 296.49 L 220.10 295.67 L 221.97 294.70 L 223.84 293.60 L 225.71 292.36 L 227.58 290.99 L 229.46 289.49 L 231.33 287.86 L 233.20 286.11 L 235.07 284.23 L 236.94 282.23 L 238.82 280.12 L 240.69 277.89 L 242.56 275.55 L 244.43 273.11 L 246.30 270.57 L 248.18 267.93 L 250.05 265.21 L 251.92 262.40 L 253.79 259.50 L 255.66 256.54 L 257.54 253.51 L 259.41 250.41 L 261.28 247.27 L 263.15 244.07 L 265.02 240.84 L 266.90 237.57 L 268.77 234.28 L 270.64 230.97 L 272.51 227.65 L 274.38 224.34 L 276.26 221.03 L 278.13 217.74 L 280.00 214.48 L 281.87 211.26 L 283.74 208.08 L 285.62 204.97 L 287.49 201.92 L 289.36 198.95 L 291.23 196.07 L 293.10 193.29 L 294.98 190.63 L 296.85 188.09 L 298.72 185.69 L 300.59 183.44 L 302.46 181.35 L 304.34 179.44 L 306.21 177.72 L 308.08 176.20 L 309.95 174.89 L 311.82 173.82 L 313.70 172.99 L 315.57 172.43 L 317.44 172.13 L 319.31 172.13 L 321.18 172.43 L 323.06 173.06 L 324.93 174.02 L 326.80 175.33 L 328.67 177.02 L 330.54 179.09 L 332.42 181.56 L 334.29 184.46 L 336.16 187.80" stroke="#ffffff" stroke-width="13" stroke-linecap="round" stroke-linejoin="round" fill="none" />
        
  <!-- Curve Dashed -->
  <path d="M 336.16 187.80 L 338.03 191.59 L 339.90 195.86 L 341.78 200.63 L 343.65 205.90 L 345.52 211.71 L 347.39 218.07 L 349.26 225.00 L 351.14 232.52 L 353.01 240.66 L 354.88 249.42 L 356.75 258.84 L 358.62 268.93 L 360.50 279.71 L 362.37 291.21 L 364.24 303.45 L 366.11 316.45 L 367.98 330.23 L 369.86 344.81 L 371.73 360.22 L 373.60 376.49" stroke="#ffffff" stroke-width="13" stroke-linecap="round" stroke-linejoin="round" stroke-dasharray="16 12" fill="none" />
        
  <!-- Arrow at the end of dashed curve -->
  <g transform="translate(373.60, 376.49) rotate(83.60)">
    <polygon points="-12,-8 12,0 -12,8" fill="#ffffff" />
  </g>
</svg>
